<svg xmlns="http://www.w3.org/2000/svg" viewBox="0 0 600 600">
  <!-- Background circle with gradient -->
  <defs>
    <linearGradient id="bg-gradient" x1="0%" y1="0%" x2="100%" y2="100%">
      <stop offset="0%" stop-color="#001220" />
      <stop offset="100%" stop-color="#003" />
    </linearGradient>

    <linearGradient id="z-gradient" x1="0%" y1="0%" x2="100%" y2="100%">
      <stop offset="0%" stop-color="#0cf" />
      <stop offset="100%" stop-color="#08f" />
    </linearGradient>

    <filter id="glow" x="-20%" y="-20%" width="140%" height="140%">
      <feGaussianBlur stdDeviation="10" result="blur" />
      <feComposite in="SourceGraphic" in2="blur" operator="over" />
    </filter>
  </defs>

  <!-- Main circular background -->
  <circle cx="300" cy="300" r="280" fill="url(#bg-gradient)" />

  <!-- Decorative tech circle -->
  <circle cx="300" cy="300" r="250" fill="none" stroke="#0ff" stroke-width="2" stroke-opacity="0.3" />
  <circle cx="300" cy="300" r="220" fill="none" stroke="#0ff" stroke-width="2" stroke-opacity="0.5" />

  <!-- Stylized 3D "Z" letter -->
  <g filter="url(#glow)">
    <!-- Main Z face -->
    <path d="M210 180 L430 180 L430 220 L270 380 L430 380 L430 420 L170 420 L170 380 L330 220 L210 220 Z"
          fill="url(#z-gradient)" />

    <!-- 3D effect - right side -->
    <path d="M430 180 L460 150 L460 390 L430 420 L430 380 L460 350 L460 190 L430 220 Z"
          fill="#08f" fill-opacity="0.8" />

    <!-- 3D effect - bottom -->
    <path d="M170 420 L200 450 L460 450 L430 420 Z"
          fill="#06c" fill-opacity="0.7" />
  </g>

  <!-- Data points and connectors -->
  <circle cx="160" cy="240" r="6" fill="#0ff" />
  <circle cx="120" cy="320" r="6" fill="#0ff" />
  <circle cx="180" cy="460" r="6" fill="#0ff" />
  <circle cx="480" cy="260" r="6" fill="#0ff" />
  <circle cx="440" cy="460" r="6" fill="#0ff" />

  <line x1="160" y1="240" x2="210" y2="220" stroke="#0ff" stroke-width="2" stroke-opacity="0.6" />
  <line x1="120" y1="320" x2="270" y2="380" stroke="#0ff" stroke-width="2" stroke-opacity="0.6" />
  <line x1="180" y1="460" x2="220" y2="420" stroke="#0ff" stroke-width="2" stroke-opacity="0.6" />
  <line x1="480" y1="260" x2="430" y2="220" stroke="#0ff" stroke-width="2" stroke-opacity="0.6" />
  <line x1="440" y1="460" x2="400" y2="420" stroke="#0ff" stroke-width="2" stroke-opacity="0.6" />

  <!-- Glowing particles -->
  <circle cx="260" cy="140" r="4" fill="#0ff" />
  <circle cx="360" cy="120" r="2" fill="#0ff" />
  <circle cx="500" cy="360" r="4" fill="#0ff" />
  <circle cx="220" cy="480" r="2" fill="#0ff" />
  <circle cx="130" cy="400" r="4" fill="#0ff" />
  <circle cx="400" cy="500" r="2" fill="#0ff" />

  <!-- Scanner line animation -->
  <line x1="120" y1="300" x2="480" y2="300" stroke="#0ff" stroke-width="4" stroke-opacity="0.8">
    <animate attributeName="y1" from="100" to="500" dur="3s" repeatCount="indefinite" />
    <animate attributeName="y2" from="100" to="500" dur="3s" repeatCount="indefinite" />
    <animate attributeName="stroke-opacity" values="0.1;0.8;0.1" dur="3s" repeatCount="indefinite" />
  </line>

  <!-- Digital binary code decorative elements -->
  <text x="380" y="170" font-family="monospace" font-size="16" fill="#0ff" fill-opacity="0.7">01001</text>
  <text x="140" y="190" font-family="monospace" font-size="16" fill="#0ff" fill-opacity="0.7">10110</text>
  <text x="420" y="480" font-family="monospace" font-size="16" fill="#0ff" fill-opacity="0.7">10010</text>
  <text x="100" y="440" font-family="monospace" font-size="16" fill="#0ff" fill-opacity="0.7">01101</text>
</svg>